HIERARCHY
ROOT joint_Root
{
	OFFSET 0.0 0.0 0.0
	CHANNELS 6 Xposition Yposition Zposition Zrotation Xrotation Yrotation 
	JOINT Hips
	{
		OFFSET 4.5925 91.4895 -427.239
		CHANNELS 6 Xposition Yposition Zposition Zrotation Xrotation Yrotation 
		JOINT Spine
		{
			OFFSET 15.7357 0.0 0.0
			CHANNELS 6 Xposition Yposition Zposition Zrotation Xrotation Yrotation 
			JOINT Chest
			{
				OFFSET 8.98455 -0.406207 0.0
				CHANNELS 6 Xposition Yposition Zposition Zrotation Xrotation Yrotation 
				JOINT Neck
				{
					OFFSET 16.3773 0.0 0.0
					CHANNELS 6 Xposition Yposition Zposition Zrotation Xrotation Yrotation 
					JOINT Head
					{
						OFFSET 6.45672 0.0 0.0
						CHANNELS 6 Xposition Yposition Zposition Zrotation Xrotation Yrotation 
						End Site
						{
							OFFSET 0.0 0.0 0.0
						}
					}
				}
				JOINT Shoulder_L
				{
					OFFSET 12.9942 -0.242716 4.98039
					CHANNELS 6 Xposition Yposition Zposition Zrotation Xrotation Yrotation 
					JOINT UpperArm_L
					{
						OFFSET 5.34809 0.0 0.0
						CHANNELS 6 Xposition Yposition Zposition Zrotation Xrotation Yrotation 
						JOINT LowerArm_L
						{
							OFFSET 24.3286 1.87007e-05 0.0
							CHANNELS 6 Xposition Yposition Zposition Zrotation Xrotation Yrotation 
							JOINT Hand_L
							{
								OFFSET 22.2916 0.0 0.0
								CHANNELS 6 Xposition Yposition Zposition Zrotation Xrotation Yrotation 
								End Site
								{
									OFFSET 0.0 0.0 0.0
								}
							}
						}
					}
				}
				JOINT Shoulder_R
				{
					OFFSET 12.9945 -0.242716 -4.98039
					CHANNELS 6 Xposition Yposition Zposition Zrotation Xrotation Yrotation 
					JOINT UpperArm_R
					{
						OFFSET -5.34813 0.0 0.0
						CHANNELS 6 Xposition Yposition Zposition Zrotation Xrotation Yrotation 
						JOINT LowerArm_R
						{
							OFFSET -24.3289 0.000322201 0.0
							CHANNELS 6 Xposition Yposition Zposition Zrotation Xrotation Yrotation 
							JOINT Hand_R
							{
								OFFSET -22.2915 -0.000108084 0.0
								CHANNELS 6 Xposition Yposition Zposition Zrotation Xrotation Yrotation 
								End Site
								{
									OFFSET 0.0 0.0 0.0
								}
							}
						}
					}
				}
			}
		}
		JOINT UpperLeg_L
		{
			OFFSET -2.19248 -6.46944 0.0
			CHANNELS 6 Xposition Yposition Zposition Zrotation Xrotation Yrotation 
			JOINT LowerLeg_L
			{
				OFFSET 39.0811 0.0 -1.23785e-05
				CHANNELS 6 Xposition Yposition Zposition Zrotation Xrotation Yrotation 
				JOINT Foot_L
				{
					OFFSET 40.9854 0.0 -1.26872e-05
					CHANNELS 6 Xposition Yposition Zposition Zrotation Xrotation Yrotation 
					JOINT Toes_L
					{
						OFFSET 11.7543 0.0 0.0
						CHANNELS 6 Xposition Yposition Zposition Zrotation Xrotation Yrotation 
						End Site
						{
							OFFSET 0.0 0.0 0.0
						}
					}
				}
			}
		}
		JOINT UpperLeg_R
		{
			OFFSET -2.19251 6.46944 0.0
			CHANNELS 6 Xposition Yposition Zposition Zrotation Xrotation Yrotation 
			JOINT LowerLeg_R
			{
				OFFSET -39.0811 -0.00228153 -0.0401928
				CHANNELS 6 Xposition Yposition Zposition Zrotation Xrotation Yrotation 
				JOINT Foot_R
				{
					OFFSET -40.9854 0.0 0.0
					CHANNELS 6 Xposition Yposition Zposition Zrotation Xrotation Yrotation 
					JOINT Toes_R
					{
						OFFSET -11.7543 0.0 0.0
						CHANNELS 6 Xposition Yposition Zposition Zrotation Xrotation Yrotation 
						End Site
						{
							OFFSET 0.0 0.0 0.0
						}
					}
				}
			}
		}
	}
}
MOTION
Frames:	4
Frame Time:	0.0333333
0.000000 0.000000 0.000000 0.000000 0.000000 -0.000000 -1.483060 90.594000 -1.502810 88.822900 -4.272540 12.137300 15.735700 0.000005 -0.000001 86.162400 79.383700 -87.014800 8.984550 -0.406207 -0.000000 13.411600 -1.447770 -1.534800 16.377300 -0.000001 -0.000001 8.275410 -4.174450 1.229040 6.456720 -0.000001 -0.000000 -4.643230 -3.256340 -3.895550 12.994200 -0.242716 4.980390 -91.315700 6.334380 -78.240700 5.348090 -0.000007 -0.000001 -54.909900 42.022400 -26.041700 24.328600 0.000019 0.000005 6.985980 19.889900 -19.807500 22.291600 -0.000001 0.000005 10.604700 5.306980 -0.124410 12.994500 -0.242716 -4.980390 89.090800 6.495630 -82.014200 -5.348130 -0.000001 -0.000004 -62.055000 -16.738500 -60.781400 -24.328900 0.000322 -0.000009 24.819800 -9.342810 -109.342000 -22.291500 -0.000108 -0.000004 39.504700 5.266450 0.993877 -2.192480 -6.469440 -0.000000 -173.430000 -12.918000 0.113032 39.081100 -0.000007 -0.000012 -0.189611 0.294424 32.782100 40.985400 -0.000006 -0.000013 0.296806 5.065570 -70.338600 11.754300 -0.000000 0.000003 -0.000127 -0.001261 -16.625700 -2.192510 6.469440 -0.000001 173.989000 22.110700 -178.586000 -39.081100 -0.002282 -0.040193 -0.195030 0.322615 31.581500 -40.985400 0.000008 0.000006 4.236250 14.914400 -70.296400 -11.754300 -0.000006 -0.000006 -0.003577 -0.046971 -18.483600
0.000000 0.000000 0.000000 0.000000 0.000000 -0.000000 -1.452590 90.596000 -1.570360 88.797500 -4.383370 12.190800 15.735700 0.000005 -0.000001 86.179800 79.376000 -87.023200 8.984550 -0.406207 -0.000000 13.427600 -1.442060 -1.517310 16.377300 -0.000001 -0.000001 8.311040 -4.212130 1.286510 6.456720 -0.000001 -0.000000 -4.695390 -3.255610 -3.885410 12.994200 -0.242716 4.980390 -91.308800 6.282000 -78.206300 5.348090 -0.000007 -0.000001 -54.838400 42.100800 -26.206400 24.328600 0.000019 0.000005 6.965300 19.800700 -19.831700 22.291600 -0.000001 0.000005 10.660900 5.307250 -0.132012 12.994500 -0.242716 -4.980390 89.101100 6.446270 -82.044200 -5.348130 -0.000001 -0.000004 -59.813100 -16.038900 -60.811900 -24.328900 0.000322 -0.000009 24.933600 -9.547120 -109.635000 -22.291500 -0.000108 -0.000004 39.352900 5.270350 0.888519 -2.192480 -6.469440 -0.000000 -173.394000 -13.009400 0.116967 39.081100 -0.000007 -0.000012 -0.191180 0.296535 32.810800 40.985400 -0.000006 -0.000013 0.315548 5.049400 -70.308600 11.754300 -0.000000 0.000003 -0.000144 -0.001404 -16.631000 -2.192510 6.469440 -0.000001 174.031000 22.015600 -178.606000 -39.081100 -0.002282 -0.040193 -0.192156 0.317908 31.584100 -40.985400 0.000008 0.000006 4.224350 14.898100 -70.230500 -11.754300 -0.000006 -0.000006 -0.003827 -0.049629 -18.591800
0.000000 0.000000 0.000000 0.000000 0.000000 -0.000000 -1.416740 90.594600 -1.646670 88.777600 -4.438230 12.230200 15.735700 0.000005 -0.000001 86.224100 79.386200 -87.055500 8.984550 -0.406207 -0.000000 13.408600 -1.423850 -1.495660 16.377300 -0.000001 -0.000001 8.370520 -4.223020 1.329910 6.456720 -0.000001 -0.000000 -4.709910 -3.298870 -3.904390 12.994200 -0.242716 4.980390 -91.289800 6.211550 -78.245600 5.348090 -0.000007 -0.000001 -54.936500 42.079600 -26.204600 24.328600 0.000019 0.000005 7.005180 19.872200 -19.873900 22.291600 -0.000001 0.000005 10.643300 5.306970 -0.124061 12.994500 -0.242716 -4.980390 89.119800 6.333410 -82.071500 -5.348130 -0.000001 -0.000004 -57.463500 -15.291100 -60.764700 -24.328900 0.000322 -0.000009 24.864300 -9.682430 -109.947000 -22.291500 -0.000108 -0.000004 39.354000 5.275490 0.749040 -2.192480 -6.469440 -0.000000 -173.401000 -13.015900 0.087742 39.081100 -0.000007 -0.000012 -0.190134 0.294405 32.855700 40.985400 -0.000006 -0.000013 0.328404 4.982380 -70.286700 11.754300 -0.000000 0.000003 -0.000142 -0.001388 -16.630400 -2.192510 6.469440 -0.000001 174.043000 21.973300 -178.646000 -39.081100 -0.002282 -0.040193 -0.191379 0.316363 31.606700 -40.985400 0.000008 0.000006 4.225130 14.950600 -70.176100 -11.754300 -0.000006 -0.000006 -0.003654 -0.047797 -18.517200
0.000000 0.000000 0.000000 0.000000 0.000000 -0.000000 -1.383560 90.600300 -1.713810 88.778300 -4.480460 12.271600 15.735700 0.000005 -0.000001 86.260100 79.402600 -87.086500 8.984550 -0.406207 -0.000000 13.376800 -1.408150 -1.487960 16.377300 -0.000001 -0.000001 8.459850 -4.245780 1.387930 6.456720 -0.000001 -0.000000 -4.720260 -3.295380 -3.961120 12.994200 -0.242716 4.980390 -91.279000 6.175090 -78.274500 5.348090 -0.000007 -0.000001 -55.054700 42.047400 -26.116200 24.328600 0.000019 0.000005 7.030540 19.884000 -19.930400 22.291600 -0.000001 0.000005 10.683800 5.305740 -0.089135 12.994500 -0.242716 -4.980390 89.133200 6.240700 -82.076700 -5.348130 -0.000001 -0.000004 -54.905200 -14.433300 -60.751400 -24.328900 0.000322 -0.000009 24.878800 -9.819590 -110.192000 -22.291500 -0.000108 -0.000004 39.164500 5.280790 0.604452 -2.192480 -6.469440 -0.000000 -173.422000 -13.045300 0.092202 39.081100 -0.000007 -0.000012 -0.186715 0.289170 32.850400 40.985400 -0.000006 -0.000013 0.353294 4.959400 -70.247400 11.754300 -0.000000 0.000003 -0.000153 -0.001481 -16.633800 -2.192510 6.469440 -0.000001 174.018000 21.987700 -178.648000 -39.081100 -0.002282 -0.040193 -0.189560 0.313516 31.597800 -40.985400 0.000008 0.000006 4.219610 14.991800 -70.119300 -11.754300 -0.000006 -0.000006 -0.003829 -0.049651 -18.592700
